# xmcd CD database file
#
# Track frame offsets:
#	150
#	3936
#	61673
#	92597
#	101145
#	112931
#	182175
#	223864
#	262356
#	326860
#
# Disc length: 4679 seconds
#
# Revision: 0
# Processed by: cddbd v1.5.1PL0 Copyright (c) Steve Scherf et al.
# Submitted via: CDex 1.51
#
DISCID=8e12450a
DTITLE=KVHW - 99-07-31 Disc1
DYEAR=1999
DGENRE=Jazz
TTITLE0=tuning-
TTITLE1=A New Africa
TTITLE2=Cissy Strut
TTITLE3=Poonk
TTITLE4=Cissy Strut
TTITLE5=Shotgun House
TTITLE6=Bad Hair
TTITLE7=Mr Potato Head
TTITLE8=Tangled Hangers
TTITLE9=Teeny Weeny Bit
EXTD=YEAR: 1999
EXTT0=
EXTT1=
EXTT2=
EXTT3=
EXTT4=
EXTT5=
EXTT6=
EXTT7=
EXTT8=
EXTT9=
PLAYORDER=
